<?xml version="1.0" standalone="no"?>
<!DOCTYPE svg PUBLIC "-//W3C//DTD SVG 20010904//EN"
 "http://www.w3.org/TR/2001/REC-SVG-20010904/DTD/svg10.dtd">
<svg version="1.0" xmlns="http://www.w3.org/2000/svg"
 width="600.000000pt" height="600.000000pt" viewBox="0 0 600.000000 600.000000"
 preserveAspectRatio="xMidYMid meet">
<metadata>
Created by potrace 1.14, written by Peter Selinger 2001-2017
</metadata>
<g transform="translate(0.000000,600.000000) scale(0.100000,-0.100000)"
fill="#000000" stroke="none">
<path d="M319 4513 c0 -10 -2 -27 -4 -38 -2 -11 -6 -42 -9 -70 -4 -27 -8 -59
-10 -70 -2 -11 -7 -46 -11 -79 -3 -32 -8 -68 -10 -80 -2 -11 -9 -61 -15 -111
-6 -49 -13 -106 -16 -125 -23 -162 -22 -200 5 -258 26 -55 93 -106 154 -117
38 -6 975 -10 982 -4 3 4 10 58 20 154 4 33 8 71 10 85 4 25 13 103 20 175 3
22 7 65 11 95 3 30 7 69 9 85 7 80 18 153 28 185 28 87 105 159 192 181 17 4
-282 7 -662 8 -653 1 -693 0 -694 -16z"/>
<path d="M1904 4519 c-95 -18 -197 -94 -247 -183 -26 -47 -42 -108 -52 -196
-3 -30 -8 -71 -10 -90 -2 -19 -7 -62 -10 -95 -3 -33 -8 -78 -10 -100 -3 -22
-7 -62 -10 -90 -4 -27 -8 -68 -10 -90 -2 -22 -6 -62 -9 -90 -3 -27 -8 -75 -11
-105 -3 -31 -7 -71 -10 -90 -2 -19 -7 -60 -10 -90 -4 -30 -8 -73 -10 -95 -3
-22 -7 -67 -10 -100 -3 -33 -8 -73 -10 -90 -6 -46 -14 -114 -20 -180 -6 -60
-9 -94 -20 -190 -8 -71 -12 -110 -20 -195 -4 -41 -9 -82 -10 -91 -2 -8 -6 -48
-10 -88 -3 -40 -8 -80 -10 -89 -1 -9 -6 -55 -10 -102 -4 -47 -8 -87 -10 -90
-2 -3 -6 -43 -10 -90 -4 -47 -9 -92 -10 -100 -2 -9 -6 -47 -10 -85 -4 -39 -8
-81 -10 -95 -1 -14 -6 -56 -10 -95 -4 -38 -10 -95 -14 -125 -4 -30 -7 -71 -7
-90 l1 -35 335 3 c551 4 559 5 612 29 81 37 148 123 162 208 4 26 10 79 21
190 2 17 6 44 9 60 2 17 8 57 11 90 4 33 9 76 11 95 2 19 6 53 8 75 2 22 7 56
10 75 3 19 8 62 11 95 4 33 8 69 10 80 2 11 7 47 10 80 8 76 13 118 21 175 7
49 8 63 18 160 4 36 9 76 11 90 3 14 7 50 10 80 3 30 7 66 10 80 2 14 6 52 10
85 6 62 13 121 20 165 2 14 7 52 10 85 4 33 9 74 11 90 2 17 6 61 10 98 4 38
13 75 21 82 11 11 94 14 459 14 245 1 450 3 455 6 5 4 18 8 30 10 49 10 124
70 162 130 25 41 32 66 41 140 11 84 27 211 31 240 2 17 7 57 11 90 3 33 8 68
10 79 2 10 6 44 10 75 4 31 8 70 10 86 2 17 6 49 9 72 l4 43 -977 -1 c-537 -1
-996 -5 -1018 -10z"/>
<path d="M4057 4524 c-2 -5 -8 -29 -12 -54 -3 -25 -8 -57 -11 -71 -2 -14 -6
-43 -9 -64 -2 -20 -7 -54 -9 -74 -3 -20 -8 -56 -11 -81 -8 -65 -26 -191 -31
-220 -2 -14 -6 -45 -9 -70 -15 -123 -27 -166 -61 -212 -35 -50 -122 -108 -161
-108 -12 0 -24 -3 -26 -7 -3 -5 45 -7 107 -6 100 1 138 -3 212 -20 26 -7 125
-48 139 -59 6 -4 34 -26 63 -49 190 -145 256 -418 167 -684 -73 -216 -265
-397 -497 -466 -71 -22 -89 -22 -653 -25 -319 -2 -585 -3 -591 -4 -6 0 -11 -6
-11 -12 0 -13 -9 -94 -19 -173 -3 -22 -6 -56 -9 -75 -2 -19 -6 -51 -9 -70 -3
-19 -8 -60 -11 -90 -3 -30 -7 -64 -9 -75 -2 -11 -7 -50 -10 -87 -4 -37 -9 -77
-11 -90 -2 -13 -6 -45 -10 -71 -6 -47 -32 -100 -71 -142 -22 -23 -73 -58 -91
-61 -6 -1 -19 -6 -29 -12 -19 -10 1580 -10 1621 1 11 2 43 8 70 11 276 37 590
178 849 380 77 60 262 252 328 340 176 236 298 523 337 796 19 132 20 143 20
255 0 199 -13 291 -65 465 -156 514 -612 898 -1161 975 -77 11 -310 17 -316 9z"/>
</g>
</svg>
