<svg id="Layer_1" data-name="Layer 1" xmlns="http://www.w3.org/2000/svg" xmlns:xlink="http://www.w3.org/1999/xlink" viewBox="0 0 368.24 229.05"><defs><style>.cls-1{fill:none;}.cls-2{clip-path:url(#clip-path);}.cls-3{fill:#010101;}</style><clipPath id="clip-path"><rect class="cls-1" width="368.24" height="229.05"/></clipPath></defs><g class="cls-2"><path class="cls-3" d="M166.62,76.71a2.77,2.77,0,0,1,2.75-2.47h54.78c7.06,0,17.49-5.66,18.69-16.87l5.95-47H122.35a24.64,24.64,0,0,0-24.5,22L77.23,224.85h0l55.92-.4a18.33,18.33,0,0,0,17.68-16.07Z"/><path class="cls-3" d="M265.74,10.35h-6.9L252,60.42c-2.45,9.84-11.68,13.82-18.13,13.82h12.64c23.53,0,40.56,19.07,38,42.6l-.11,1c-2.52,23.53-23.63,42.6-47.16,42.6H166.8L160.68,211a18.36,18.36,0,0,1-17.17,13.48l99.09-.11c58.65,0,111.29-47.55,117.57-106.2l.17-1.6C366.62,58,324.28,10.47,265.74,10.35"/><path class="cls-3" d="M12.78,10.34l-6.1,47C5,68.58,14,74.24,21,74.24l61.66.06v-.06h.51l5.3-47.89A18.72,18.72,0,0,1,96.12,13.5,17.47,17.47,0,0,1,106,10.29Z"/></g></svg>